<svg width="100" height="96" viewBox="0 0 100 96" fill="none" xmlns="http://www.w3.org/2000/svg">
<g clip-path="url(#clip0_1_467)">
<rect width="100" height="96" rx="16" fill="url(#paint0_linear_1_467)"/>
</g>
<g filter="url(#filter0_d_1_467)">
<path d="M59.3188 18.8425C55.8958 19.3236 52.6958 20.3743 50.4228 21.7633C48.1498 23.1524 46.9899 24.7661 47.1984 26.2495L47.9845 31.8425" fill="url(#paint1_linear_1_467)"/>
<path d="M59.3188 18.8425C55.8958 19.3236 52.6958 20.3743 50.4228 21.7633C48.1498 23.1524 46.9899 24.7661 47.1984 26.2495L47.9845 31.8425" stroke="black" stroke-width="2" stroke-linecap="square" stroke-linejoin="round"/>
<path d="M47.7731 33.1719C49.609 30.8042 52.0515 29.0806 54.8046 28.21C57.5577 27.3394 60.5032 27.3592 63.2841 28.267C66.065 29.1747 68.562 30.9315 70.4724 33.3244C72.3829 35.7174 73.6248 38.6437 74.0476 41.7487C76.3398 58.0585 67.1185 72.7145 53.5975 74.6147C40.0766 76.515 27.1728 64.9684 24.8806 48.6587C24.2826 44.404 25.2632 40.1051 27.6065 36.7079C29.9499 33.3106 33.4641 31.0931 37.3761 30.5433C41.2881 29.9935 45.2773 31.1564 48.4663 33.7762C51.6553 36.396 53.7828 40.258 54.3808 44.5127" fill="url(#paint2_linear_1_467)"/>
<path d="M47.7731 33.1719C49.609 30.8042 52.0515 29.0806 54.8046 28.21C57.5577 27.3394 60.5032 27.3592 63.2841 28.267C66.065 29.1747 68.562 30.9315 70.4724 33.3244C72.3829 35.7174 73.6248 38.6437 74.0476 41.7487C76.3398 58.0585 67.1185 72.7145 53.5975 74.6147C40.0766 76.515 27.1728 64.9684 24.8806 48.6587C24.2826 44.404 25.2632 40.1051 27.6065 36.7079C29.9499 33.3106 33.4641 31.0931 37.3761 30.5433C41.2881 29.9935 45.2773 31.1564 48.4663 33.7762C51.6554 36.396 53.7828 40.258 54.3808 44.5127" stroke="black" stroke-width="2" stroke-linecap="square" stroke-linejoin="round"/>
</g>
<ellipse cx="61.2103" cy="41.6647" rx="2" ry="2.5" transform="rotate(-3 61.2103 41.6647)" fill="#6B3F3A"/>
<ellipse cx="44.4124" cy="43.3426" rx="2" ry="2.5" transform="rotate(-3 44.4124 43.3426)" fill="#6B3F3A"/>
<g opacity="0.7">
<ellipse cx="38.4124" cy="48.3426" rx="5" ry="1.5" fill="#FD6161" fill-opacity="0.32"/>
<ellipse cx="38.4124" cy="48.3426" rx="5" ry="1.5" fill="#FD6161" fill-opacity="0.32"/>
</g>
<g opacity="0.7">
<ellipse cx="66.4124" cy="48.3426" rx="5" ry="1.5" fill="#FD6161" fill-opacity="0.32"/>
<ellipse cx="66.4124" cy="48.3426" rx="5" ry="1.5" fill="#FD6161" fill-opacity="0.32"/>
</g>
<path d="M57.4788 49.9999C56.0717 51.1267 53.5812 51.3446 52 50.4792" stroke="#6B3F3A" stroke-width="1.4" stroke-linecap="round"/>
<defs>
<filter id="filter0_d_1_467" x="11.7092" y="9.7131" width="75.6864" height="82.1077" filterUnits="userSpaceOnUse" color-interpolation-filters="sRGB">
<feFlood flood-opacity="0" result="BackgroundImageFix"/>
<feColorMatrix in="SourceAlpha" type="matrix" values="0 0 0 0 0 0 0 0 0 0 0 0 0 0 0 0 0 0 127 0" result="hardAlpha"/>
<feOffset dy="4"/>
<feGaussianBlur stdDeviation="6"/>
<feComposite in2="hardAlpha" operator="out"/>
<feColorMatrix type="matrix" values="0 0 0 0 1 0 0 0 0 0.705882 0 0 0 0 0.54902 0 0 0 0.35 0"/>
<feBlend mode="normal" in2="BackgroundImageFix" result="effect1_dropShadow_1_467"/>
<feBlend mode="normal" in="SourceGraphic" in2="effect1_dropShadow_1_467" result="shape"/>
</filter>
<linearGradient id="paint0_linear_1_467" x1="50" y1="0" x2="50" y2="96" gradientUnits="userSpaceOnUse">
<stop stop-color="#FFC3B6"/>
<stop offset="1" stop-color="#F8A1A1"/>
</linearGradient>
<linearGradient id="paint1_linear_1_467" x1="52.8656" y1="19.7495" x2="54.4377" y2="30.9356" gradientUnits="userSpaceOnUse">
<stop stop-color="#B7C9B3"/>
<stop offset="1" stop-color="#7E9B6E"/>
</linearGradient>
<linearGradient id="paint2_linear_1_467" x1="47.1991" y1="29.0867" x2="53.5976" y2="74.6147" gradientUnits="userSpaceOnUse">
<stop stop-color="#FFC3B6"/>
<stop offset="1" stop-color="#FF9F8F"/>
</linearGradient>
<clipPath id="clip0_1_467">
<rect width="100" height="96" rx="16" fill="white"/>
</clipPath>
</defs>
</svg>
